# xmcd
#
# Track frame offsets:
#	150
#	17659
#	38296
#	52885
#	74641
#	93160
#	107777
#	123624
#	137355
#	154240
#	174359
#	192759
#	209469
#	226327
#	245956
#
# Disc length: 3541 seconds
#
# Revision: 0
# Processed by: cddbd v1.5.1PL0 Copyright (c) Steve Scherf et al.
# Submitted via: audiograbber 1.83.01
#
DISCID=c70dd30f
DTITLE=Various Artist - CBCDG-60017
DYEAR=1900
DGENRE=Karaoke
TTITLE0=Faith Hill/Tim McGraw - It's Your Love
TTITLE1=Trisha Yearwood - How Do I Live
TTITLE2=Michael Peterson - Drink, Swear, Steal and Lie
TTITLE3=Raybon Brothers - Butterfly Kisses
TTITLE4=Lila McCann - Down Came A Blackbird
TTITLE5=Trace Adkins - I Left Something Turned On At Home
TTITLE6=Tracy Byrd - Don't Love Make A Diamond Shine
TTITLE7=Lorrie Morgan - Go Away, No Wait A Minute
TTITLE8=Tracy Lawrence - How A Cowgirl Says Goodbye
TTITLE9=Clint Black/Martina McBride - Still Holdin On
TTITLE10=Kenny Chesney - She's Got It All
TTITLE11=John Anderson - Somebody Slap Me
TTITLE12=Lee Ann Womack - The Fool
TTITLE13=George Strait - Carrying Your Love With Me
TTITLE14=Toby Keith - We Were In Love
EXTD=
EXTT0=
EXTT1=
EXTT2=
EXTT3=
EXTT4=
EXTT5=
EXTT6=
EXTT7=
EXTT8=
EXTT9=
EXTT10=
EXTT11=
EXTT12=
EXTT13=
EXTT14=
PLAYORDER=
